<?xml version="1.0" standalone="no"?>
<!DOCTYPE svg PUBLIC "-//W3C//DTD SVG 20010904//EN"
 "http://www.w3.org/TR/2001/REC-SVG-20010904/DTD/svg10.dtd">
<svg version="1.0" xmlns="http://www.w3.org/2000/svg"
 width="1024.000000pt" height="1024.000000pt" viewBox="0 0 1024.000000 1024.000000"
 preserveAspectRatio="xMidYMid meet">
<metadata>
Created by potrace 1.14, written by Peter Selinger 2001-2017
</metadata>
<g transform="translate(0.000000,1024.000000) scale(0.100000,-0.100000)"
fill="#000000" stroke="none">
<path d="M4928 10225 c-2 -2 -41 -6 -88 -10 -47 -3 -92 -8 -100 -10 -8 -2 -40
-6 -70 -9 -30 -3 -64 -8 -75 -10 -11 -2 -40 -7 -65 -12 -55 -10 -45 -7 -110
-23 -916 -216 -1543 -802 -1754 -1636 -22 -89 -54 -272 -62 -361 -10 -107 -10
-411 -1 -509 55 -556 331 -1063 807 -1485 47 -41 87 -77 90 -80 9 -10 105 -87
175 -141 l70 -54 583 -1 c320 0 582 3 582 8 0 4 -4 8 -8 8 -23 0 -539 338
-664 435 -14 11 -41 31 -59 45 -498 377 -778 757 -863 1170 -23 115 -25 127
-33 224 -18 229 0 454 51 641 10 33 18 65 20 70 26 103 122 308 199 423 280
418 729 683 1287 758 160 22 424 17 585 -11 272 -46 496 -122 760 -255 103
-53 293 -160 320 -183 6 -4 48 -33 95 -64 75 -50 146 -100 245 -176 71 -54
293 -233 325 -263 19 -18 46 -41 60 -52 l26 -20 119 150 c66 83 125 155 130
162 41 47 125 157 125 164 0 8 -39 45 -172 161 -68 59 -254 199 -373 280 -248
169 -475 294 -721 399 -123 53 -376 145 -430 157 -10 2 -44 10 -74 19 -59 15
-185 42 -246 52 -20 3 -44 7 -53 9 -9 2 -44 6 -76 10 -33 4 -71 9 -85 12 -27
5 -467 13 -472 8z"/>
<path d="M4578 5359 c-5 -3 -2 -9 8 -13 17 -7 523 -305 594 -351 59 -38 140
-85 146 -85 2 0 10 -5 17 -10 7 -6 71 -46 142 -89 192 -114 421 -261 580 -369
132 -90 409 -294 466 -344 15 -13 49 -42 76 -65 86 -73 233 -225 299 -309 103
-132 200 -311 229 -424 3 -8 13 -49 24 -90 11 -41 23 -101 26 -133 4 -32 8
-68 11 -80 14 -73 22 -516 10 -617 -6 -55 -18 -152 -20 -164 -69 -351 -189
-622 -392 -882 -55 -71 -191 -215 -265 -280 -61 -54 -207 -158 -291 -208 -82
-47 -239 -129 -261 -134 -4 -1 -23 -8 -42 -17 -81 -33 -262 -86 -380 -111
-148 -31 -285 -42 -490 -38 -110 1 -209 5 -220 7 -11 3 -49 9 -85 13 -36 4
-67 9 -70 9 -3 1 -23 5 -45 9 -523 101 -1024 379 -1435 796 -153 156 -179 185
-289 330 -48 63 -91 116 -96 118 -10 2 -68 -39 -127 -90 -15 -13 -102 -81
-192 -153 -91 -71 -165 -135 -165 -142 -1 -9 106 -149 144 -189 5 -6 39 -44
75 -84 157 -177 374 -378 565 -522 64 -48 237 -165 270 -184 11 -6 61 -33 110
-61 145 -82 300 -154 452 -209 87 -32 115 -42 173 -60 144 -44 426 -103 589
-122 137 -16 778 -7 894 13 148 26 256 45 275 50 12 3 30 7 40 9 9 2 37 9 62
16 25 7 50 13 55 14 6 2 44 13 85 26 41 13 77 24 80 25 3 1 14 5 25 10 11 4
56 21 100 38 113 42 325 152 446 232 453 296 771 712 955 1247 54 156 115 418
129 553 4 33 8 67 10 75 17 68 25 516 12 660 -27 284 -96 523 -219 760 -60
114 -170 280 -250 375 -92 109 -345 353 -462 445 -10 8 -33 27 -50 41 -32 26
-211 161 -256 192 -14 9 -50 34 -80 55 -30 20 -61 42 -67 49 -7 6 -29 21 -50
34 -21 13 -40 26 -43 29 -5 5 -283 185 -428 276 -34 21 -82 51 -105 66 -101
65 -51 60 -698 62 -325 0 -595 -2 -601 -5z"/>
</g>
</svg>
