<?xml version="1.0" standalone="no"?>
<!DOCTYPE svg PUBLIC "-//W3C//DTD SVG 20010904//EN"
 "http://www.w3.org/TR/2001/REC-SVG-20010904/DTD/svg10.dtd">
<svg version="1.0" xmlns="http://www.w3.org/2000/svg"
 width="919.000000pt" height="1689.000000pt" viewBox="0 0 919.000000 1689.000000"
 preserveAspectRatio="xMidYMid meet">

<g transform="translate(0.000000,1689.000000) scale(0.100000,-0.100000)"
fill="currentColor" stroke="none">
<path d="M4385 16884 c-951 -46 -1794 -319 -2465 -800 -687 -492 -1161 -1196
-1365 -2027 -179 -729 -161 -1518 51 -2162 256 -778 773 -1444 1623 -2089
l113 -86 967 0 966 0 -45 29 c-25 16 -130 82 -235 146 -104 65 -297 190 -427
277 -1151 771 -1711 1411 -1913 2183 -111 423 -124 954 -34 1394 227 1110
1088 1934 2269 2169 408 82 896 84 1314 7 870 -161 1716 -628 2791 -1544 99
-84 133 -107 141 -98 41 45 614 768 614 776 0 5 -51 54 -112 108 -1123 991
-2391 1588 -3613 1703 -121 11 -513 20 -640 14z"/>
<path d="M3715 8847 c11 -8 115 -70 230 -139 1419 -847 1706 -1022 2110 -1293
1350 -902 1832 -1478 1959 -2340 44 -298 56 -943 23 -1215 -93 -761 -408
-1415 -936 -1940 -548 -545 -1250 -881 -2066 -987 -199 -26 -719 -26 -920 0
-818 106 -1574 435 -2250 981 -341 275 -640 588 -926 969 -65 87 -121 159
-125 160 -9 3 -803 -637 -803 -648 -1 -12 106 -145 267 -335 158 -186 586
-610 767 -761 530 -440 1040 -740 1639 -963 765 -285 1639 -389 2528 -301
1484 148 2659 838 3330 1955 358 595 565 1285 629 2090 17 223 15 670 -4 865
-71 706 -295 1258 -729 1803 -131 163 -519 551 -713 713 -438 364 -967 734
-1727 1208 l-307 191 -998 0 c-835 0 -994 -2 -978 -13z"/>
</g>
</svg>
